<svg width="500" height="373" viewBox="0 0 500 473" fill="none" xmlns="http://www.w3.org/2000/svg">
<g clip-path="url(#clip0)">
<path d="M500 470.139H162.592V471.594H500V470.139Z" fill="#3F3D56"/>
<path d="M437.032 222.672C437.681 223.436 438.163 224.327 438.446 225.288C438.73 226.249 438.808 227.259 438.676 228.253C438.544 229.246 438.205 230.201 437.681 231.055C437.156 231.909 436.458 232.643 435.632 233.21L400.713 257.184L385.337 267.435C384.464 268.018 383.405 268.254 382.367 268.099C381.328 267.943 380.385 267.407 379.72 266.595V266.595C379.333 266.121 379.053 265.569 378.9 264.977C378.746 264.384 378.724 263.765 378.833 263.163C378.942 262.561 379.181 261.99 379.532 261.489C379.884 260.988 380.34 260.57 380.87 260.262L395.762 251.615L421.754 226.861L405.045 208.914L417.422 199.631L437.032 222.672Z" fill="#A0616A"/>
<path d="M354.918 448.409H346.377L341.303 377.86L362.963 377.241L354.918 448.409Z" fill="#A0616A"/>
<path d="M355.537 471.307C353.26 472.346 351.352 463.925 349.431 465.813C344.057 471.093 335.828 472.243 328.655 469.938L331.166 469.91C330.733 469.771 330.333 469.545 329.99 469.247C329.647 468.948 329.368 468.584 329.17 468.174C328.972 467.765 328.859 467.32 328.838 466.866C328.817 466.411 328.889 465.958 329.048 465.532V465.532C329.239 465.023 329.551 464.567 329.957 464.205C330.363 463.843 330.851 463.585 331.379 463.453L337.094 462.024L346.067 446.243L355.228 445.625C357.27 448.228 358.695 451.261 359.396 454.495C360.097 457.728 360.056 461.079 359.275 464.295C358.444 467.687 357.161 470.566 355.537 471.307Z" fill="#2F2E41"/>
<path d="M411.792 448.409H403.25L398.177 377.86L420.455 373.529L411.792 448.409Z" fill="#A0616A"/>
<path d="M412.41 471.307C410.133 472.346 408.225 463.925 406.304 465.813C400.93 471.093 392.701 472.243 385.528 469.938L388.039 469.91C387.606 469.771 387.206 469.545 386.863 469.247C386.52 468.948 386.241 468.584 386.043 468.174C385.845 467.765 385.732 467.32 385.711 466.866C385.69 466.412 385.762 465.958 385.921 465.532C386.113 465.023 386.424 464.567 386.83 464.205C387.236 463.843 387.724 463.585 388.252 463.453L393.967 462.024L402.94 446.243L412.72 445.006L412.967 445.41C414.857 448.457 416.076 451.872 416.542 455.427C417.008 458.983 416.71 462.597 415.669 466.028C414.856 468.634 413.749 470.696 412.41 471.307Z" fill="#2F2E41"/>
<path d="M421.476 201.227C413.621 202.32 408.183 206.622 405.968 215.203L391.53 188.545C390.674 186.851 390.457 184.905 390.919 183.064C391.381 181.222 392.491 179.609 394.045 178.52C395.695 177.364 397.725 176.882 399.718 177.174C401.712 177.466 403.518 178.509 404.768 180.09L421.476 201.227Z" fill="#33445B"/>
<path d="M436.607 370.434C401.501 385.967 365.573 387.878 328.927 377.86C342.309 325.958 358.11 279.027 358.013 240.476L393.906 237.381L399.432 246.143C412.544 266.93 421.595 290.015 426.105 314.175L436.607 370.434Z" fill="#2F2E41"/>
<path d="M377.816 160.644C388.069 160.644 396.381 152.332 396.381 142.078C396.381 131.825 388.069 123.513 377.816 123.513C367.562 123.513 359.25 131.825 359.25 142.078C359.25 152.332 367.562 160.644 377.816 160.644Z" fill="#A0616A"/>
<path d="M398.238 174.877L375.34 176.115L371.627 155.693L390.193 152.599L398.238 174.877Z" fill="#A0616A"/>
<path d="M395.762 240.476L370.677 241.182L358.012 242.951C351.796 222.416 346.562 201.927 359.25 184.779L374.103 169.927L396.381 169.308L396.676 169.476C400.214 171.503 402.956 174.675 404.451 178.469C405.945 182.263 406.102 186.453 404.896 190.348C399.367 208.314 395.816 225.279 395.762 240.476Z" fill="#33445B"/>
<path d="M357.394 298.029L355.838 319.295C355.754 320.434 355.262 321.504 354.452 322.309C353.642 323.114 352.568 323.599 351.428 323.675V323.675C350.772 323.719 350.113 323.626 349.495 323.401C348.876 323.176 348.311 322.825 347.836 322.369C347.361 321.914 346.986 321.365 346.735 320.756C346.484 320.148 346.362 319.494 346.378 318.836L346.873 298.029L362.344 239.238L362.963 203.345L380.291 202.726L379.053 244.189L357.394 298.029Z" fill="#A0616A"/>
<path d="M382.148 205.82C374.801 202.833 367.94 203.833 361.726 210.152L362.577 179.846C362.684 177.951 363.471 176.158 364.793 174.796C366.115 173.433 367.883 172.593 369.774 172.429V172.429C371.781 172.254 373.779 172.854 375.359 174.104C376.938 175.355 377.979 177.163 378.269 179.156L382.148 205.82Z" fill="#33445B"/>
<path d="M417.113 224.695H360.179C373.46 189.525 377.743 156.806 360.179 128.773C360.48 120.353 371.279 113.054 379.666 113.86C389.571 114.813 402.88 122.091 404.736 131.867L417.113 224.695Z" fill="#2F2E41"/>
<path d="M235.666 112.315H233.069V41.1742C233.069 35.7671 232.004 30.413 229.935 25.4175C227.866 20.422 224.833 15.883 221.009 12.0596C217.186 8.23624 212.647 5.20338 207.651 3.13419C202.656 1.065 197.302 1.43141e-05 191.895 3.05178e-05H41.1743C35.7672 1.85782e-05 30.4131 1.06501 25.4176 3.1342C20.4221 5.2034 15.8831 8.23626 12.0597 12.0596C8.23631 15.883 5.20343 20.422 3.13423 25.4175C1.06504 30.413 3.98066e-05 35.7671 4.57764e-05 41.1742V431.456C4.15123e-05 436.863 1.06504 442.217 3.13423 447.213C5.20343 452.208 8.23631 456.747 12.0597 460.57C15.8831 464.394 20.4221 467.427 25.4176 469.496C30.4131 471.565 35.7672 472.63 41.1743 472.63H191.895C197.302 472.63 202.656 471.565 207.651 469.496C212.647 467.427 217.186 464.394 221.009 460.57C224.833 456.747 227.866 452.208 229.935 447.213C232.004 442.217 233.069 436.863 233.069 431.456V162.954H235.666V112.315Z" fill="#3F3D56"/>
<path d="M193.556 10.7121H173.882C174.787 12.9303 175.132 15.3369 174.888 17.72C174.643 20.1031 173.816 22.3895 172.48 24.3778C171.144 26.3661 169.339 27.9953 167.225 29.1218C165.111 30.2484 162.752 30.8377 160.357 30.8379H74.0107C71.6151 30.8377 69.2564 30.2484 67.1422 29.1218C65.028 27.9953 63.2233 26.3661 61.887 24.3778C60.5508 22.3895 59.724 20.1031 59.4796 17.72C59.2352 15.3369 59.5805 12.9303 60.4853 10.7121H42.1097C38.0718 10.7121 34.0734 11.5074 30.3428 13.0527C26.6122 14.5979 23.2226 16.8628 20.3673 19.7181C17.5121 22.5733 15.2471 25.963 13.7019 29.6936C12.1566 33.4241 11.3613 37.4225 11.3613 41.4605V431.17C11.3613 435.207 12.1566 439.206 13.7019 442.936C15.2471 446.667 17.512 450.057 20.3673 452.912C23.2226 455.767 26.6122 458.032 30.3428 459.577C34.0734 461.123 38.0718 461.918 42.1097 461.918H193.556C197.594 461.918 201.592 461.123 205.323 459.577C209.054 458.032 212.443 455.767 215.298 452.912C218.154 450.057 220.419 446.667 221.964 442.936C223.509 439.206 224.304 435.207 224.304 431.17V41.4604C224.304 33.3055 221.065 25.4845 215.298 19.7181C209.532 13.9517 201.711 10.7121 193.556 10.7121V10.7121Z" fill="white"/>
<path d="M197.711 71.5874H37.9548V208.614H197.711V71.5874Z" fill="#E6E6E6"/>
<path d="M85.3622 237.188C91.8181 237.188 97.0516 231.955 97.0516 225.499C97.0516 219.043 91.8181 213.809 85.3622 213.809C78.9062 213.809 73.6727 219.043 73.6727 225.499C73.6727 231.955 78.9062 237.188 85.3622 237.188Z" fill="#33445B"/>
<path d="M91.2071 224.525H86.3365V219.654H84.3882V224.525H79.5176V226.473H84.3882V231.344H86.3365V226.473H91.2071V224.525Z" fill="white"/>
<path d="M147.057 237.188C153.513 237.188 158.746 231.955 158.746 225.499C158.746 219.043 153.513 213.809 147.057 213.809C140.601 213.809 135.367 219.043 135.367 225.499C135.367 231.955 140.601 237.188 147.057 237.188Z" fill="#33445B"/>
<path d="M152.901 226.473V224.525H141.212V226.473H152.901Z" fill="white"/>
<path d="M123.791 88.6767H111.166C110.722 88.6767 110.297 88.853 109.983 89.1669C109.669 89.4808 109.493 89.9066 109.493 90.3505V95.8919C109.493 96.3358 109.669 96.7615 109.983 97.0754C110.297 97.3893 110.722 97.5657 111.166 97.5657H113.258V105.869H121.699V97.5657H123.791C124.235 97.5657 124.661 97.3893 124.975 97.0754C125.289 96.7615 125.465 96.3358 125.465 95.8919V90.3505C125.465 89.9066 125.289 89.4808 124.975 89.1669C124.661 88.8531 124.235 88.6767 123.791 88.6767Z" fill="#33445B"/>
<path d="M136.436 139.391C128.704 128.078 124.752 114.607 125.145 100.909C125.152 100.593 125.049 100.285 124.854 100.036C124.659 99.7866 124.385 99.6127 124.076 99.5434V97.149H110.743V99.5102H110.559C110.379 99.5104 110.201 99.546 110.035 99.615C109.87 99.6839 109.719 99.7849 109.592 99.9121C109.465 100.039 109.365 100.19 109.296 100.356C109.227 100.522 109.192 100.7 109.193 100.88C109.193 100.913 109.194 100.946 109.196 100.98C110.247 115.622 106.7 128.754 98.5552 140.373C98.0865 141.041 97.847 141.843 97.8728 142.658L99.3307 187.757C99.3658 188.763 99.7879 189.716 100.509 190.418C101.23 191.12 102.195 191.517 103.201 191.525H133.36C134.378 191.516 135.352 191.111 136.075 190.395C136.799 189.679 137.214 188.708 137.233 187.69L137.794 143.903C137.811 142.296 137.337 140.722 136.436 139.391V139.391Z" fill="#3F3D56"/>
<path opacity="0.2" d="M121.159 90.4823C121.159 91.44 120.779 92.3585 120.102 93.0357C119.424 93.713 118.506 94.0934 117.548 94.0934C116.59 94.0934 115.672 93.713 114.995 93.0357C114.318 92.3585 113.937 91.44 113.937 90.4823" fill="black"/>
<path d="M131.662 154.372H128.01C127.662 152.109 126.515 150.046 124.777 148.556C123.04 147.066 120.826 146.247 118.537 146.247C116.248 146.247 114.034 147.066 112.297 148.556C110.559 150.046 109.413 152.109 109.064 154.372H105.412C105.023 154.372 104.639 154.456 104.286 154.618C103.933 154.78 103.619 155.017 103.366 155.312C103.113 155.607 102.927 155.953 102.82 156.327C102.714 156.7 102.689 157.092 102.748 157.477L106.715 183.261H129.493L134.311 157.563C134.384 157.174 134.37 156.774 134.271 156.39C134.172 156.007 133.989 155.65 133.736 155.346C133.483 155.041 133.166 154.796 132.808 154.627C132.449 154.459 132.058 154.372 131.662 154.372V154.372Z" fill="#33445B"/>
<path d="M197.711 264.464H37.9548V401.49H197.711V264.464Z" fill="#E6E6E6"/>
<path d="M85.3622 430.065C91.8181 430.065 97.0516 424.831 97.0516 418.375C97.0516 411.919 91.8181 406.686 85.3622 406.686C78.9062 406.686 73.6727 411.919 73.6727 418.375C73.6727 424.831 78.9062 430.065 85.3622 430.065Z" fill="#33445B"/>
<path d="M91.2071 417.401H86.3365V412.531H84.3882V417.401H79.5176V419.349H84.3882V424.22H86.3365V419.349H91.2071V417.401Z" fill="white"/>
<path d="M147.057 430.065C153.513 430.065 158.746 424.831 158.746 418.375C158.746 411.919 153.513 406.686 147.057 406.686C140.601 406.686 135.367 411.919 135.367 418.375C135.367 424.831 140.601 430.065 147.057 430.065Z" fill="#33445B"/>
<path d="M152.901 419.349V417.401H141.212V419.349H152.901Z" fill="white"/>
<path d="M149.283 361.81L149.371 361.81C152.379 361.835 155.324 360.953 157.824 359.279C160.323 357.605 162.259 355.217 163.381 352.425C166.915 343.49 167.742 333.713 165.76 324.311C163.778 314.909 159.074 306.297 152.234 299.549C145.394 292.8 136.72 288.213 127.292 286.358C117.864 284.503 108.098 285.462 99.2114 289.117C90.3246 292.771 82.709 298.958 77.3129 306.909C71.9167 314.859 68.9784 324.221 68.8639 333.829C68.7493 343.437 71.4636 352.867 76.6687 360.944C81.8737 369.021 89.3397 375.388 98.1368 379.253C100.871 380.463 103.907 380.82 106.847 380.274C109.787 379.729 112.494 378.308 114.613 376.198C119.156 371.63 124.559 368.007 130.509 365.538C136.46 363.068 142.84 361.801 149.283 361.81V361.81Z" fill="white"/>
<path d="M124.123 346.983C133.056 346.983 140.297 339.742 140.297 330.809C140.297 321.876 133.056 314.634 124.123 314.634C115.19 314.634 107.948 321.876 107.948 330.809C107.948 339.742 115.19 346.983 124.123 346.983Z" fill="#F9A825"/>
</g>
<defs>
<clipPath id="clip0">
<rect width="500" height="472.63" fill="white"/>
</clipPath>
</defs>
</svg>
