<svg width="200" height="58" viewBox="0 0 200 58" fill="none" xmlns="http://www.w3.org/2000/svg">
<path d="M38.5241 34.56V39H21.5841V10.08H26.9641V34.56H38.5241ZM72.6941 9.28V26.3H73.6141C73.9474 26.3 74.2074 26.26 74.3941 26.18C74.5941 26.0867 74.7941 25.9067 74.9941 25.64L80.0941 19.34C80.3074 19.06 80.5407 18.8467 80.7941 18.7C81.0607 18.5533 81.4007 18.48 81.8141 18.48H86.3341L79.9541 26.1C79.5007 26.7 79.0074 27.16 78.4741 27.48C78.7541 27.68 79.0007 27.9133 79.2141 28.18C79.4407 28.4467 79.6541 28.7333 79.8541 29.04L86.6941 39H82.2341C81.8474 39 81.5141 38.94 81.2341 38.82C80.9541 38.6867 80.7207 38.4533 80.5341 38.12L75.2941 30.34C75.1074 30.0333 74.9141 29.8333 74.7141 29.74C74.5141 29.6467 74.2141 29.6 73.8141 29.6H72.6941V39H67.7541V9.28H72.6941ZM101.561 30.24C100.135 30.3067 98.9346 30.4333 97.9613 30.62C96.9879 30.7933 96.2079 31.02 95.6213 31.3C95.0346 31.58 94.6146 31.9067 94.3613 32.28C94.1079 32.6533 93.9813 33.06 93.9813 33.5C93.9813 34.3667 94.2346 34.9867 94.7413 35.36C95.2613 35.7333 95.9346 35.92 96.7613 35.92C97.7746 35.92 98.6479 35.74 99.3813 35.38C100.128 35.0067 100.855 34.4467 101.561 33.7V30.24ZM90.2413 21.34C92.6013 19.18 95.4413 18.1 98.7613 18.1C99.9613 18.1 101.035 18.3 101.981 18.7C102.928 19.0867 103.728 19.6333 104.381 20.34C105.035 21.0333 105.528 21.8667 105.861 22.84C106.208 23.8133 106.381 24.88 106.381 26.04V39H104.141C103.675 39 103.315 38.9333 103.061 38.8C102.808 38.6533 102.608 38.3667 102.461 37.94L102.021 36.46C101.501 36.9267 100.995 37.34 100.501 37.7C100.008 38.0467 99.4946 38.34 98.9613 38.58C98.4279 38.82 97.8546 39 97.2413 39.12C96.6413 39.2533 95.9746 39.32 95.2413 39.32C94.3746 39.32 93.5746 39.2067 92.8413 38.98C92.1079 38.74 91.4746 38.3867 90.9413 37.92C90.4079 37.4533 89.9946 36.8733 89.7013 36.18C89.4079 35.4867 89.2613 34.68 89.2613 33.76C89.2613 33.24 89.3479 32.7267 89.5213 32.22C89.6946 31.7 89.9746 31.2067 90.3613 30.74C90.7613 30.2733 91.2746 29.8333 91.9013 29.42C92.5279 29.0067 93.2946 28.6467 94.2013 28.34C95.1213 28.0333 96.1879 27.7867 97.4013 27.6C98.6146 27.4 100.001 27.28 101.561 27.24V26.04C101.561 24.6667 101.268 23.6533 100.681 23C100.095 22.3333 99.2479 22 98.1413 22C97.3413 22 96.6746 22.0933 96.1413 22.28C95.6213 22.4667 95.1613 22.68 94.7613 22.92C94.3613 23.1467 93.9946 23.3533 93.6613 23.54C93.3413 23.7267 92.9813 23.82 92.5813 23.82C92.2346 23.82 91.9413 23.7333 91.7013 23.56C91.4613 23.3733 91.2679 23.16 91.1213 22.92L90.2413 21.34ZM117.254 21C117.667 20.5867 118.1 20.2067 118.554 19.86C119.02 19.5 119.507 19.2 120.014 18.96C120.534 18.7067 121.087 18.5133 121.674 18.38C122.26 18.2333 122.9 18.16 123.594 18.16C124.714 18.16 125.707 18.3533 126.574 18.74C127.44 19.1133 128.16 19.6467 128.734 20.34C129.32 21.02 129.76 21.84 130.054 22.8C130.36 23.7467 130.514 24.7933 130.514 25.94V39H125.574V25.94C125.574 24.6867 125.287 23.72 124.714 23.04C124.14 22.3467 123.267 22 122.094 22C121.24 22 120.44 22.1933 119.694 22.58C118.947 22.9667 118.24 23.4933 117.574 24.16V39H112.634V18.48H115.654C116.294 18.48 116.714 18.78 116.914 19.38L117.254 21ZM149.692 23.72C149.132 23.04 148.519 22.56 147.852 22.28C147.199 22 146.492 21.86 145.732 21.86C144.985 21.86 144.312 22 143.712 22.28C143.112 22.56 142.599 22.9867 142.172 23.56C141.745 24.12 141.419 24.84 141.192 25.72C140.965 26.5867 140.852 27.6133 140.852 28.8C140.852 30 140.945 31.02 141.132 31.86C141.332 32.6867 141.612 33.3667 141.972 33.9C142.332 34.42 142.772 34.8 143.292 35.04C143.812 35.2667 144.392 35.38 145.032 35.38C146.059 35.38 146.932 35.1667 147.652 34.74C148.372 34.3133 149.052 33.7067 149.692 32.92V23.72ZM154.632 9.28V39H151.612C150.959 39 150.545 38.7 150.372 38.1L149.952 36.12C149.125 37.0667 148.172 37.8333 147.092 38.42C146.025 39.0067 144.779 39.3 143.352 39.3C142.232 39.3 141.205 39.0667 140.272 38.6C139.339 38.1333 138.532 37.46 137.852 36.58C137.185 35.6867 136.665 34.5867 136.292 33.28C135.932 31.9733 135.752 30.48 135.752 28.8C135.752 27.28 135.959 25.8667 136.372 24.56C136.785 23.2533 137.379 22.12 138.152 21.16C138.925 20.2 139.852 19.4533 140.932 18.92C142.012 18.3733 143.225 18.1 144.572 18.1C145.719 18.1 146.699 18.28 147.512 18.64C148.325 19 149.052 19.4867 149.692 20.1V9.28H154.632ZM170.187 18.16C171.707 18.16 173.087 18.4067 174.327 18.9C175.581 19.3933 176.647 20.0933 177.527 21C178.421 21.9067 179.107 23.0133 179.587 24.32C180.067 25.6267 180.307 27.0867 180.307 28.7C180.307 30.3267 180.067 31.7933 179.587 33.1C179.107 34.4067 178.421 35.52 177.527 36.44C176.647 37.36 175.581 38.0667 174.327 38.56C173.087 39.0533 171.707 39.3 170.187 39.3C168.654 39.3 167.261 39.0533 166.007 38.56C164.754 38.0667 163.681 37.36 162.787 36.44C161.907 35.52 161.221 34.4067 160.727 33.1C160.247 31.7933 160.007 30.3267 160.007 28.7C160.007 27.0867 160.247 25.6267 160.727 24.32C161.221 23.0133 161.907 21.9067 162.787 21C163.681 20.0933 164.754 19.3933 166.007 18.9C167.261 18.4067 168.654 18.16 170.187 18.16ZM170.187 35.5C171.894 35.5 173.154 34.9267 173.967 33.78C174.794 32.6333 175.207 30.9533 175.207 28.74C175.207 26.5267 174.794 24.84 173.967 23.68C173.154 22.52 171.894 21.94 170.187 21.94C168.454 21.94 167.167 22.5267 166.327 23.7C165.501 24.86 165.087 26.54 165.087 28.74C165.087 30.94 165.501 32.62 166.327 33.78C167.167 34.9267 168.454 35.5 170.187 35.5Z" fill="white"/>
<path d="M50.8695 46.346C42.5452 34.4442 41 33.2227 41 28.8486C41 22.8571 45.9248 18 52 18C58.0752 18 63 22.8571 63 28.8486C63 33.2227 61.4548 34.4442 53.1305 46.346C52.5842 47.1243 51.4157 47.1242 50.8695 46.346ZM52 33.3689C54.5313 33.3689 56.5833 31.3451 56.5833 28.8486C56.5833 26.3521 54.5313 24.3284 52 24.3284C49.4687 24.3284 47.4167 26.3521 47.4167 28.8486C47.4167 31.3451 49.4687 33.3689 52 33.3689Z" fill="url(#paint0_linear)"/>
<path d="M64.7805 44.6775C64.7355 44.7625 64.6705 44.805 64.5855 44.805C64.5205 44.805 64.4355 44.76 64.3305 44.67C64.2305 44.575 64.093 44.4725 63.918 44.3625C63.743 44.2475 63.523 44.1425 63.258 44.0475C62.998 43.9525 62.6755 43.905 62.2905 43.905C61.9055 43.905 61.5655 43.96 61.2705 44.07C60.9805 44.18 60.7355 44.33 60.5355 44.52C60.3405 44.71 60.1905 44.93 60.0855 45.18C59.9855 45.43 59.9355 45.6925 59.9355 45.9675C59.9355 46.3275 60.0105 46.625 60.1605 46.86C60.3155 47.095 60.518 47.295 60.768 47.46C61.018 47.625 61.3005 47.765 61.6155 47.88C61.9355 47.99 62.263 48.1 62.598 48.21C62.933 48.32 63.258 48.4425 63.573 48.5775C63.893 48.7075 64.178 48.8725 64.428 49.0725C64.678 49.2725 64.878 49.52 65.028 49.815C65.183 50.105 65.2605 50.4675 65.2605 50.9025C65.2605 51.3475 65.183 51.7675 65.028 52.1625C64.878 52.5525 64.658 52.8925 64.368 53.1825C64.078 53.4725 63.723 53.7025 63.303 53.8725C62.883 54.0375 62.403 54.12 61.863 54.12C61.163 54.12 60.5605 53.9975 60.0555 53.7525C59.5505 53.5025 59.108 53.1625 58.728 52.7325L58.938 52.4025C58.998 52.3275 59.068 52.29 59.148 52.29C59.193 52.29 59.2505 52.32 59.3205 52.38C59.3905 52.44 59.4755 52.515 59.5755 52.605C59.6755 52.69 59.7955 52.785 59.9355 52.89C60.0755 52.99 60.238 53.085 60.423 53.175C60.608 53.26 60.8205 53.3325 61.0605 53.3925C61.3005 53.4525 61.573 53.4825 61.878 53.4825C62.298 53.4825 62.673 53.42 63.003 53.295C63.333 53.165 63.6105 52.99 63.8355 52.77C64.0655 52.55 64.2405 52.29 64.3605 51.99C64.4805 51.685 64.5405 51.36 64.5405 51.015C64.5405 50.64 64.463 50.3325 64.308 50.0925C64.158 49.8475 63.958 49.645 63.708 49.485C63.458 49.32 63.173 49.1825 62.853 49.0725C62.538 48.9625 62.213 48.855 61.878 48.75C61.543 48.645 61.2155 48.5275 60.8955 48.3975C60.5805 48.2675 60.298 48.1025 60.048 47.9025C59.798 47.6975 59.5955 47.445 59.4405 47.145C59.2905 46.84 59.2155 46.46 59.2155 46.005C59.2155 45.65 59.283 45.3075 59.418 44.9775C59.553 44.6475 59.7505 44.3575 60.0105 44.1075C60.2705 43.8525 60.5905 43.65 60.9705 43.5C61.3555 43.345 61.793 43.2675 62.283 43.2675C62.833 43.2675 63.3255 43.355 63.7605 43.53C64.2005 43.705 64.6005 43.9725 64.9605 44.3325L64.7805 44.6775ZM74.5554 44.04H70.8279V54H70.0554V44.04H66.3054V43.3875H74.5554V44.04ZM81.0244 50.145L78.8644 44.7825C78.7894 44.6075 78.7169 44.3975 78.6469 44.1525C78.6169 44.2725 78.5844 44.3875 78.5494 44.4975C78.5144 44.6025 78.4769 44.7 78.4369 44.79L76.2769 50.145H81.0244ZM83.3719 54H82.7794C82.7094 54 82.6519 53.9825 82.6069 53.9475C82.5619 53.9075 82.5269 53.8575 82.5019 53.7975L81.2569 50.715H76.0444L74.7994 53.7975C74.7794 53.8525 74.7444 53.9 74.6944 53.94C74.6444 53.98 74.5844 54 74.5144 54H73.9294L78.2719 43.3875H79.0294L83.3719 54ZM87.741 48.63C88.211 48.63 88.631 48.575 89.001 48.465C89.376 48.35 89.691 48.1875 89.946 47.9775C90.206 47.7675 90.4035 47.515 90.5385 47.22C90.6735 46.925 90.741 46.5925 90.741 46.2225C90.741 45.4675 90.4935 44.9075 89.9985 44.5425C89.5085 44.1775 88.791 43.995 87.846 43.995H85.9035V48.63H87.741ZM92.451 54H91.791C91.706 54 91.6335 53.9875 91.5735 53.9625C91.5185 53.9325 91.466 53.88 91.416 53.805L88.011 49.5C87.971 49.445 87.9285 49.3975 87.8835 49.3575C87.8435 49.3175 87.796 49.2875 87.741 49.2675C87.691 49.2425 87.6285 49.225 87.5535 49.215C87.4835 49.205 87.396 49.2 87.291 49.2H85.9035V54H85.131V43.3875H87.846C89.066 43.3875 89.9785 43.625 90.5835 44.1C91.1935 44.57 91.4985 45.2625 91.4985 46.1775C91.4985 46.5825 91.4285 46.9525 91.2885 47.2875C91.1485 47.6225 90.946 47.9175 90.681 48.1725C90.421 48.4225 90.1035 48.6275 89.7285 48.7875C89.3585 48.9475 88.941 49.055 88.476 49.11C88.596 49.185 88.7035 49.285 88.7985 49.41L92.451 54ZM102.659 49.185V52.9575C102.129 53.3325 101.564 53.62 100.964 53.82C100.364 54.02 99.6887 54.12 98.9387 54.12C98.0987 54.12 97.3437 53.9925 96.6737 53.7375C96.0037 53.4775 95.4312 53.1125 94.9562 52.6425C94.4862 52.1675 94.1237 51.595 93.8687 50.925C93.6187 50.255 93.4937 49.51 93.4937 48.69C93.4937 47.87 93.6162 47.1275 93.8612 46.4625C94.1112 45.7925 94.4662 45.2225 94.9262 44.7525C95.3912 44.2775 95.9512 43.9125 96.6062 43.6575C97.2612 43.3975 97.9987 43.2675 98.8187 43.2675C99.2237 43.2675 99.5962 43.295 99.9362 43.35C100.281 43.405 100.601 43.4875 100.896 43.5975C101.191 43.7025 101.466 43.835 101.721 43.995C101.976 44.15 102.221 44.33 102.456 44.535L102.246 44.865C102.176 44.985 102.071 45.0125 101.931 44.9475C101.856 44.9175 101.749 44.8475 101.609 44.7375C101.469 44.6275 101.276 44.5125 101.031 44.3925C100.786 44.2725 100.481 44.165 100.116 44.07C99.7562 43.975 99.3162 43.9275 98.7962 43.9275C98.1062 43.9275 97.4812 44.0375 96.9212 44.2575C96.3662 44.4775 95.8912 44.7925 95.4962 45.2025C95.1062 45.6125 94.8037 46.1125 94.5887 46.7025C94.3787 47.2925 94.2737 47.955 94.2737 48.69C94.2737 49.435 94.3787 50.105 94.5887 50.7C94.8037 51.295 95.1112 51.8 95.5112 52.215C95.9162 52.63 96.4062 52.9475 96.9812 53.1675C97.5562 53.3875 98.2037 53.4975 98.9237 53.4975C99.2387 53.4975 99.5287 53.4775 99.7937 53.4375C100.064 53.3975 100.319 53.3425 100.559 53.2725C100.804 53.1975 101.039 53.1075 101.264 53.0025C101.494 52.8925 101.726 52.77 101.961 52.635V49.7775H99.9287C99.8737 49.7775 99.8262 49.76 99.7862 49.725C99.7512 49.69 99.7337 49.65 99.7337 49.605V49.185H102.659ZM110.893 50.145L108.733 44.7825C108.658 44.6075 108.585 44.3975 108.515 44.1525C108.485 44.2725 108.453 44.3875 108.418 44.4975C108.383 44.6025 108.345 44.7 108.305 44.79L106.145 50.145H110.893ZM113.24 54H112.648C112.578 54 112.52 53.9825 112.475 53.9475C112.43 53.9075 112.395 53.8575 112.37 53.7975L111.125 50.715H105.913L104.668 53.7975C104.648 53.8525 104.613 53.9 104.563 53.94C104.513 53.98 104.453 54 104.383 54H103.798L108.14 43.3875H108.898L113.24 54ZM117.609 48.63C118.079 48.63 118.499 48.575 118.869 48.465C119.244 48.35 119.559 48.1875 119.814 47.9775C120.074 47.7675 120.272 47.515 120.407 47.22C120.542 46.925 120.609 46.5925 120.609 46.2225C120.609 45.4675 120.362 44.9075 119.867 44.5425C119.377 44.1775 118.659 43.995 117.714 43.995H115.772V48.63H117.609ZM122.319 54H121.659C121.574 54 121.502 53.9875 121.442 53.9625C121.387 53.9325 121.334 53.88 121.284 53.805L117.879 49.5C117.839 49.445 117.797 49.3975 117.752 49.3575C117.712 49.3175 117.664 49.2875 117.609 49.2675C117.559 49.2425 117.497 49.225 117.422 49.215C117.352 49.205 117.264 49.2 117.159 49.2H115.772V54H114.999V43.3875H117.714C118.934 43.3875 119.847 43.625 120.452 44.1C121.062 44.57 121.367 45.2625 121.367 46.1775C121.367 46.5825 121.297 46.9525 121.157 47.2875C121.017 47.6225 120.814 47.9175 120.549 48.1725C120.289 48.4225 119.972 48.6275 119.597 48.7875C119.227 48.9475 118.809 49.055 118.344 49.11C118.464 49.185 118.572 49.285 118.667 49.41L122.319 54ZM133.05 48.69C133.05 49.51 132.928 50.2475 132.683 50.9025C132.438 51.5575 132.093 52.115 131.648 52.575C131.203 53.035 130.668 53.3875 130.043 53.6325C129.423 53.8775 128.738 54 127.988 54H124.11V43.3875H127.988C128.738 43.3875 129.423 43.51 130.043 43.755C130.668 44 131.203 44.3525 131.648 44.8125C132.093 45.2725 132.438 45.83 132.683 46.485C132.928 47.14 133.05 47.875 133.05 48.69ZM132.255 48.69C132.255 47.95 132.153 47.29 131.948 46.71C131.743 46.13 131.453 45.64 131.078 45.24C130.703 44.84 130.253 44.535 129.728 44.325C129.203 44.115 128.623 44.01 127.988 44.01H124.883V53.3775H127.988C128.623 53.3775 129.203 53.2725 129.728 53.0625C130.253 52.8525 130.703 52.5475 131.078 52.1475C131.453 51.7475 131.743 51.2575 131.948 50.6775C132.153 50.0975 132.255 49.435 132.255 48.69Z" fill="white"/>
<defs>
<linearGradient id="paint0_linear" x1="52" y1="18" x2="52" y2="46.9297" gradientUnits="userSpaceOnUse">
<stop stop-color="#6FE2CC"/>
<stop offset="1" stop-color="#50C3B8" stop-opacity="0.89"/>
</linearGradient>
</defs>
</svg>
