<svg width="500" height="413" viewBox="0 0 600 413" fill="none" xmlns="http://www.w3.org/2000/svg">
<g clip-path="url(#clip0)">
<path opacity="0.1" d="M226.162 43.0168H187.246C185.651 43.0168 184.358 44.3099 184.358 45.905V56.8883C184.358 58.4834 185.651 59.7765 187.246 59.7765H226.162C227.757 59.7765 229.05 58.4834 229.05 56.8883V45.905C229.05 44.3099 227.757 43.0168 226.162 43.0168Z" fill="#33445B"/>
<path opacity="0.1" d="M359.123 27.933H320.207C318.612 27.933 317.318 29.2261 317.318 30.8212V41.8045C317.318 43.3996 318.612 44.6927 320.207 44.6927H359.123C360.718 44.6927 362.011 43.3996 362.011 41.8045V30.8212C362.011 29.2261 360.718 27.933 359.123 27.933Z" fill="#33445B"/>
<path opacity="0.1" d="M334.542 198.324H295.626C294.031 198.324 292.737 199.617 292.737 201.212V212.196C292.737 213.791 294.031 215.084 295.626 215.084H334.542C336.137 215.084 337.43 213.791 337.43 212.196V201.212C337.43 199.617 336.137 198.324 334.542 198.324Z" fill="#33445B"/>
<path opacity="0.1" d="M354.654 216.76H315.737C314.142 216.76 312.849 218.053 312.849 219.648V230.631C312.849 232.226 314.142 233.52 315.737 233.52H354.654C356.249 233.52 357.542 232.226 357.542 230.631V219.648C357.542 218.053 356.249 216.76 354.654 216.76Z" fill="#33445B"/>
<path opacity="0.1" d="M474.207 208.38H435.291C433.695 208.38 432.402 209.673 432.402 211.268V222.251C432.402 223.847 433.695 225.14 435.291 225.14H474.207C475.802 225.14 477.095 223.847 477.095 222.251V211.268C477.095 209.673 475.802 208.38 474.207 208.38Z" fill="#33445B"/>
<path opacity="0.1" d="M110.52 221.788H71.6034C70.0082 221.788 68.7151 223.081 68.7151 224.676V235.659C68.7151 237.254 70.0082 238.548 71.6034 238.548H110.52C112.115 238.548 113.408 237.254 113.408 235.659V224.676C113.408 223.081 112.115 221.788 110.52 221.788Z" fill="#33445B"/>
<path opacity="0.1" d="M320.575 235.195H281.659C280.064 235.195 278.771 236.489 278.771 238.084V249.067C278.771 250.662 280.064 251.955 281.659 251.955H320.575C322.171 251.955 323.464 250.662 323.464 249.067V238.084C323.464 236.489 322.171 235.195 320.575 235.195Z" fill="#33445B"/>
<path d="M401.626 101.793L381.145 42.3408L373.782 43.4581L367.19 44.3017C367.358 42.067 367.648 34.0447 363.559 29.838C363.162 28.3966 362.117 26.7598 360.106 24.9162C350.307 15.9329 348.268 34.3072 348.268 34.3072C348.268 34.3072 346.034 38.1843 342.955 43.6033L341.341 43.2961L340.883 47.2961C334.067 59.3463 325.011 75.6536 325.011 77.1843C325.011 79.6368 323.788 82.8994 323.788 82.8994C323.788 82.8994 316.849 94.3296 314.397 100.05C312.969 103.425 310.879 106.48 308.251 109.033C308.251 109.033 307.659 109.486 306.687 110.151C306.749 109.069 306.937 107.999 307.246 106.961C308.14 104.039 310.218 101.536 310.771 98.5307C310.9 97.8102 310.949 97.0776 310.916 96.3463C311.045 92.8212 309.33 89.3519 308.615 85.8268C307.782 81.743 308.229 77.2458 306.05 73.6983C304.374 70.9888 301.402 69.3017 298.313 68.5251C295.475 67.8156 292.682 68.067 289.821 67.7653C287.196 67.486 284.687 66.324 282.061 65.8938C280.659 65.5888 279.207 65.5888 277.804 65.8938C273.363 67.1173 271.972 72.7151 268.542 75.7933C267.307 76.9106 265.793 77.6815 264.676 78.905C263.05 80.6871 262.486 83.1732 262.57 85.6089C262.548 86.4254 262.597 87.2421 262.715 88.0503C263.14 90.972 264.268 93.7374 264.95 96.6033C265.465 98.7243 265.744 100.896 265.782 103.078C265.782 103.57 265.782 104.061 265.737 104.547C265.758 105.531 265.496 106.501 264.983 107.341C264.363 108.196 263.341 108.609 262.43 109.156C259.454 106.794 257.219 103.625 255.994 100.028C255.994 100.028 255.844 100.218 255.587 100.587V100.028C255.587 100.028 250 91.8268 249.151 85.1285L251.095 85.3296L255.564 22.4525L244.151 20.7765C243.832 17.5307 242.966 12.8212 240.67 9.38546C242.587 5.60893 243.553 0.497195 235.151 -0.0111847C225.318 -0.60895 225.922 7.05027 226.966 11.2402C226.493 13.5266 226.305 15.8629 226.408 18.1955L216.352 16.7318L216.296 17.5475H213.905L206.587 81.6927L212.821 81.3799L235.67 83.7597C237.497 100.369 240.369 120.894 243.777 125.732C243.89 125.895 244.015 126.05 244.151 126.196V155.587C244.151 155.587 243.743 193.575 236.799 199.682C241.059 198.166 245.564 197.459 250.084 197.598C250.006 197.849 249.927 198.117 249.849 198.402C248.833 202.152 248.125 205.978 247.732 209.844C247.635 210.696 247.547 211.587 247.469 212.514C246.83 221.023 246.948 229.573 247.821 238.061C250.682 268.274 255.173 289.916 255.173 289.916L256.425 307.48C256.425 307.48 255.201 337.285 258.464 347.084C259.693 348.217 261.106 349.133 262.642 349.793C262.67 350.073 262.704 350.352 262.732 350.648C262.76 350.944 262.804 351.402 262.844 351.793C261.38 352.458 258.648 355.095 258.056 365.452C258.056 365.452 258.872 373.212 256.832 376.883C254.793 380.553 256.017 391.173 262.14 392.397C266.053 393.116 270.064 393.116 273.978 392.397C273.978 392.397 276.838 392.397 274.793 382.19L274.436 379.575C274.391 374.519 274.603 369.106 275.609 367.492C277.648 364.223 274.793 360.961 274.793 360.961C274.793 360.961 274.592 361.073 274.263 361.223C273.737 358.402 273.05 353.821 273.296 350.324C273.296 350.028 273.346 349.765 273.38 349.458C274.626 348.807 275.787 348.006 276.838 347.073V308.296C276.838 308.296 276.43 248.687 280.922 247.458C280.922 247.458 282.961 269.095 282.145 279.715C281.33 290.335 283.369 301.765 283.369 301.765L284.184 345.045C284.184 345.045 284.966 345.419 286.229 345.86L286.145 346.648C285.648 351.458 284.849 358.721 284.123 363.168C283.633 363.362 283.197 363.672 282.851 364.07C282.506 364.469 282.262 364.945 282.14 365.458C280.916 369.542 281.732 379.749 279.279 382.609C277.832 384.285 276.101 387.698 276.95 390.112C276.419 392.229 276.654 395.536 282.955 396.084C292.346 396.899 296.43 392 296.43 392C296.43 392 297.654 389.961 296.43 386.285C295.207 382.609 296.838 376.078 296.838 376.078C296.838 376.078 297.715 370.536 296.279 369.81C296.156 369.151 296.045 368.732 296.045 368.732C296.064 367.476 295.602 366.261 294.754 365.335C294.721 361.061 294.894 353.156 296.397 347.95C296.486 347.654 296.575 347.391 296.67 347.084C297.881 346.875 299.048 346.465 300.123 345.871C300.123 345.871 299.715 336.48 302.575 329.95C305.436 323.419 303.799 297.285 303.799 297.285C303.799 297.285 302.575 290.419 304.302 284.855C306.279 278.688 307.762 272.374 308.737 265.972L311.145 249.106C311.145 249.106 317.486 228.575 309.134 207.503C308.793 206.631 308.419 205.76 308.017 204.888C307.324 203.374 306.553 201.855 305.693 200.346C305.559 200.112 305.413 199.871 305.274 199.637C306.151 199.419 306.648 199.29 306.648 199.29C306.648 199.29 295.626 173.592 302.564 160.503C302.564 160.503 306.475 156.592 307.034 152.296C307.726 146.614 308.48 140.939 309.721 135.352L309.939 134.369C309.939 134.369 309.972 134.179 310.028 133.838C310.184 133.737 310.335 133.631 310.486 133.52C322.251 124.927 332.397 89.0503 332.397 89.0503L335.665 82.905L337.218 79.6201L334.034 107.402L358.939 113.547L374.86 112.324L374.816 108.899L386.95 107.955L401.626 101.793ZM243.749 20.7877L239.324 20.1396C238.548 16.1452 238.022 13.5251 238.022 13.5251C238.95 12.3787 239.771 11.1502 240.475 9.85473C242.615 13.1285 243.436 17.5977 243.749 20.7653V20.7877ZM227.223 12.2123C227.531 13.2626 227.81 13.9385 227.81 13.9385L228.369 18.5475L226.86 18.3296C226.774 16.2758 226.898 14.2187 227.229 12.1899L227.223 12.2123ZM366.777 44.3966L360.788 45.1676C361.631 42.6871 362.676 38.6201 362.067 34.9385C362.653 34.4018 363.106 33.7365 363.391 32.9949C363.676 32.2533 363.785 31.4557 363.709 30.6648C367.268 34.9162 366.933 42.4246 366.777 44.3799V44.3966ZM356.832 38.0223C358.617 37.4256 360.272 36.4947 361.709 35.2793C362.223 38.8938 361.151 42.8659 360.335 45.2234L354.749 45.9385L353.207 45.6424L356.832 38.0223Z" fill="url(#paint0_linear)"/>
<path d="M400.559 102.849L385.983 108.933L369.05 49.8883L373.022 45.1732L380.302 44.0447L400.559 102.849Z" fill="#33445B"/>
<path opacity="0.2" d="M400.559 102.849L385.983 108.933L369.05 49.8883L373.022 45.1732L380.302 44.0447L400.559 102.849Z" fill="white"/>
<path d="M373.022 45.1732L347.726 48.419L360.693 110.899L385.983 108.933L373.022 45.1732Z" fill="#33445B"/>
<path opacity="0.07" d="M373.022 45.1732L347.726 48.419L360.693 110.899L385.983 108.933L373.022 45.1732Z" fill="white"/>
<path d="M366.447 46.581L366.045 46.5307C366.045 46.3799 367.721 31.6313 358.464 29.7709L358.542 29.3743C368.195 31.3128 366.48 46.4302 366.447 46.581Z" fill="#535461"/>
<path d="M300.737 89.6313H272.872V130.419H300.737V89.6313Z" fill="#774E55"/>
<path opacity="0.2" d="M300.737 89.6313H272.872V130.419H300.737V89.6313Z" fill="black"/>
<path d="M374.028 113.251L358.279 114.464L360.704 53.0838L365.95 49.8548L373.218 51.0671L374.028 113.251Z" fill="#33445B"/>
<path opacity="0.2" d="M374.028 113.251L358.279 114.464L360.704 53.0838L365.95 49.8548L373.218 51.0671L374.028 113.251Z" fill="black"/>
<path d="M365.95 49.8547L340.916 45.0056L333.648 108.408L358.279 114.464L365.95 49.8547Z" fill="#33445B"/>
<path d="M218.559 19.5698H214.922L207.654 82.9665L223.804 82.162L218.559 19.5698Z" fill="#33445B"/>
<path opacity="0.2" d="M218.559 19.5698H214.922L207.654 82.9665L223.804 82.162L218.559 19.5698Z" fill="black"/>
<path d="M217.346 18.7598L212.905 82.5642L251.67 86.6033L256.112 24.4134L217.346 18.7598Z" fill="#33445B"/>
<path d="M264.19 349.894C264.19 349.894 259.346 349.492 258.536 363.626C258.536 363.626 259.346 371.296 257.324 374.933C255.302 378.57 256.514 389.067 262.575 390.279C266.453 390.994 270.429 390.994 274.307 390.279C274.307 390.279 277.134 390.279 275.117 380.184L271.078 350.704L264.19 349.894Z" fill="#5C3D53"/>
<path opacity="0.05" d="M264.19 349.894C264.19 349.894 259.346 349.492 258.536 363.626C258.536 363.626 259.346 371.296 257.324 374.933C255.302 378.57 256.514 389.067 262.575 390.279C266.453 390.994 270.429 390.994 274.307 390.279C274.307 390.279 277.134 390.279 275.117 380.184L271.078 350.704L264.19 349.894Z" fill="black"/>
<path d="M289.581 116.704C289.235 122.715 290.436 126.201 290.436 126.201L279.939 129.028C279.939 129.028 262.575 131.452 269.441 124.559C271.816 122.184 272.983 118.112 273.492 113.81C273.81 110.872 273.909 107.914 273.788 104.961C273.695 102.194 273.456 99.4343 273.073 96.6927C273.073 96.6927 298.514 87.81 292.86 102.346C291.83 104.976 291.018 107.685 290.43 110.447C289.993 112.509 289.709 114.6 289.581 116.704Z" fill="#F8BDC5"/>
<path opacity="0.1" d="M292.86 102.352C291.83 104.981 291.018 107.69 290.43 110.453C287.419 111.092 284.292 110.922 281.368 109.958C278.444 108.994 275.828 107.272 273.788 104.966C273.695 102.2 273.456 99.4399 273.073 96.6983C273.073 96.6983 298.514 87.8156 292.86 102.352Z" fill="black"/>
<path d="M286.804 110.022C296.394 110.022 304.168 102.249 304.168 92.6592C304.168 83.0698 296.394 75.2961 286.804 75.2961C277.215 75.2961 269.441 83.0698 269.441 92.6592C269.441 102.249 277.215 110.022 286.804 110.022Z" fill="#F8BDC5"/>
<path d="M256.112 101.14V106.391L247.229 129.408L244.804 126.983C244.671 126.84 244.547 126.687 244.436 126.525C238.57 118.19 234.302 62.7765 234.302 62.7765L228.654 15.9218C228.654 15.9218 222.598 1.39665 235.916 2.18995C249.235 2.98325 238.743 15.514 238.743 15.514C238.743 15.514 247.626 59.933 246.413 61.5475C245.201 63.162 246.413 68.0112 246.413 68.0112C246.413 68.0112 250.05 77.3017 249.642 84.162C249.235 91.0223 256.112 101.14 256.112 101.14Z" fill="#F8BDC5"/>
<path d="M356.257 39.7598L335.257 84.1788L332.028 90.2235C332.028 90.2235 321.972 125.71 310.358 134.207C309.69 134.705 308.966 135.123 308.201 135.453L305.777 116.067L308.011 110.436L308.179 110.006C310.77 107.478 312.829 104.458 314.235 101.123C316.659 95.4693 323.525 84.162 323.525 84.162C323.525 84.162 324.737 80.933 324.737 78.5084C324.737 76.0838 347.754 36.1062 347.754 36.1062C347.754 36.1062 349.771 17.933 359.486 26.8157C369.201 35.6983 356.257 39.7598 356.257 39.7598Z" fill="#F8BDC5"/>
<path d="M275.089 362.006C275.089 362.006 261.358 367.659 262.972 362.408C263.955 359.223 263.592 353.207 263.156 349C262.877 346.257 262.564 344.257 262.564 344.257L274.296 345.469C273.886 346.493 273.657 347.58 273.62 348.682C273.235 354.039 275.089 362.006 275.089 362.006Z" fill="#F8BDC5"/>
<path d="M296.441 346.296C294.324 353.648 294.877 366.453 294.877 366.453C294.877 366.453 282.358 368.067 283.57 364.838C284.413 362.603 285.648 351.531 286.318 345.022C286.615 342.179 286.799 340.207 286.799 340.207L298.106 342.631C297.336 343.743 296.772 344.985 296.441 346.296V346.296Z" fill="#F8BDC5"/>
<path opacity="0.1" d="M262.57 344.24L274.302 345.453C273.892 346.476 273.663 347.563 273.626 348.665C272.022 349.504 270.248 349.969 268.439 350.024C266.629 350.079 264.831 349.723 263.179 348.983C262.883 346.235 262.57 344.24 262.57 344.24Z" fill="black"/>
<path opacity="0.1" d="M298.112 342.626C297.337 343.739 296.77 344.982 296.436 346.296C292.62 346.911 288.615 345.832 286.318 345.022C286.615 342.179 286.799 340.207 286.799 340.207L298.112 342.626Z" fill="black"/>
<path d="M311.033 248.531L308.654 265.212C307.688 271.544 306.22 277.789 304.263 283.888C302.553 289.391 303.765 296.179 303.765 296.179C303.765 296.179 305.38 322.022 302.553 328.486C299.726 334.95 300.128 344.235 300.128 344.235C293.665 347.872 284.38 343.425 284.38 343.425L283.57 300.62C283.57 300.62 281.553 289.313 282.358 278.832C283.162 268.352 281.145 246.933 281.145 246.933C276.676 248.145 277.106 307.101 277.106 307.101V345.464C267.413 353.944 258.933 345.464 258.933 345.464C255.704 335.771 256.916 306.291 256.916 306.291L255.704 288.927C255.704 288.927 251.235 267.525 248.441 237.642C247.578 229.247 247.462 220.791 248.095 212.374C248.173 211.458 248.259 210.577 248.352 209.732C248.739 205.91 249.438 202.127 250.441 198.419C250.762 197.197 251.172 196 251.67 194.838L295.061 196.855L297.62 196.972L303.765 197.257C304.436 198.268 305.067 199.296 305.654 200.324C306.503 201.816 307.268 203.318 307.95 204.793C308.341 205.654 308.709 206.52 309.067 207.38C317.318 228.212 311.033 248.531 311.033 248.531Z" fill="#5E52AD"/>
<path opacity="0.1" d="M263.38 198.866C263.38 198.866 261.48 217.86 248.089 212.363C248.168 211.447 248.253 210.566 248.346 209.721C251.497 210.575 260.218 211.754 260.547 198.86L263.38 198.866Z" fill="black"/>
<path opacity="0.1" d="M309.045 207.386C299.771 210.698 296.274 201.877 295.078 196.844L297.637 196.961C299.028 204.877 304.581 205.341 307.961 204.782C308.341 205.665 308.704 206.531 309.045 207.386Z" fill="black"/>
<path d="M267.788 359.86C265.726 359.536 262.575 358.402 263.564 354.441C263.564 354.441 259.749 353.123 260.151 368.872C260.151 368.872 259.749 376.542 258.939 378.162C258.128 379.782 258.939 389.469 267.419 388.659C267.419 388.659 273.475 390.676 275.089 387.447C275.089 387.447 273.877 368.872 275.899 365.659C277.922 362.447 275.089 359.196 275.089 359.196C275.089 359.196 272.229 360.782 270.173 360.313C269.391 360.095 268.587 359.989 267.788 359.86Z" fill="#5C3D53"/>
<path d="M277.916 386.235C277.916 386.235 273.877 393.101 283.168 393.905C292.458 394.71 296.492 389.866 296.492 389.866C296.492 389.866 297.704 387.849 296.492 384.212C295.279 380.575 296.894 374.117 296.894 374.117C296.894 374.117 298.106 366.447 295.279 368.061C292.453 369.676 277.916 386.235 277.916 386.235Z" fill="#5C3D53"/>
<path opacity="0.05" d="M277.916 386.235C277.916 386.235 273.877 393.101 283.168 393.905C292.458 394.71 296.492 389.866 296.492 389.866C296.492 389.866 297.704 387.849 296.492 384.212C295.279 380.575 296.894 374.117 296.894 374.117C296.894 374.117 298.106 366.447 295.279 368.061C292.453 369.676 277.916 386.235 277.916 386.235Z" fill="black"/>
<path d="M288.419 361.603C288.419 361.603 283.575 359.587 282.363 363.62C281.151 367.654 281.961 377.754 279.536 380.581C277.112 383.408 273.883 391.078 283.575 390.676C293.268 390.274 295.307 387.039 295.307 387.039C295.307 387.039 294.905 376.944 296.117 374.117C297.33 371.29 296.117 366.855 296.117 366.855C296.117 366.855 296.492 361.173 288.419 361.603Z" fill="#5C3D53"/>
<path opacity="0.2" d="M227.844 25.2234C228.291 25.2234 228.654 24.8608 228.654 24.4134C228.654 23.966 228.291 23.6033 227.844 23.6033C227.396 23.6033 227.034 23.966 227.034 24.4134C227.034 24.8608 227.396 25.2234 227.844 25.2234Z" fill="black"/>
<path opacity="0.2" d="M244.804 27.2402C245.252 27.2402 245.615 26.8776 245.615 26.4302C245.615 25.9828 245.252 25.6201 244.804 25.6201C244.357 25.6201 243.994 25.9828 243.994 26.4302C243.994 26.8776 244.357 27.2402 244.804 27.2402Z" fill="black"/>
<path d="M245.006 26.4358H244.603C244.603 26.2626 244.888 9.22906 235.106 7.65923C233.179 7.35196 231.603 7.78772 230.425 8.95532C226.385 12.9609 228.056 24.2738 228.073 24.3855L227.676 24.4469C227.603 23.9721 225.961 12.8156 230.145 8.6704C231.419 7.40224 233.117 6.92738 235.173 7.25699C245.296 8.8771 245.011 26.2626 245.006 26.4358Z" fill="#535461"/>
<path d="M359.268 49.1341L358.905 48.9609C358.966 48.8268 365.19 35.3464 356.966 30.6481L357.168 30.2961C365.71 35.1788 359.335 48.9944 359.268 49.1341Z" fill="#535461"/>
<path opacity="0.1" d="M290.436 126.179L279.939 129.006C279.939 129.006 262.575 131.43 269.441 124.536C271.816 122.162 272.983 118.089 273.492 113.788C276.235 118.089 279.536 116.866 279.536 116.866L289.548 116.67H289.587C289.235 122.715 290.436 126.179 290.436 126.179Z" fill="black"/>
<path opacity="0.1" d="M310.363 134.218C309.696 134.716 308.972 135.134 308.207 135.464L305.782 116.078L308.017 110.447L308.575 110.017C313.62 111.452 311.017 130.022 310.363 134.218Z" fill="black"/>
<path opacity="0.1" d="M256.112 101.14V106.391L247.229 129.408L244.804 126.983C244.671 126.84 244.547 126.687 244.436 126.525C245.486 114.525 256.112 101.14 256.112 101.14Z" fill="black"/>
<path opacity="0.1" d="M305.648 200.313C300 201.726 270.514 208.654 261.765 202.095C258.313 199.508 254.246 198.559 250.441 198.408C250.762 197.185 251.172 195.988 251.67 194.827L295.061 196.844L297.62 196.961L303.765 197.246C304.436 198.263 305.061 199.285 305.648 200.313Z" fill="black"/>
<path d="M229.665 5.63687C229.665 5.63687 235.721 15.7318 239.76 5.63687Z" fill="#F8BDC5"/>
<path d="M354.24 26.4302C354.24 26.4302 351.816 38.5475 361.503 32.8939Z" fill="#F8BDC5"/>
<g opacity="0.1">
<path opacity="0.1" d="M279.268 250.916C279.073 248.458 278.927 246.922 278.927 246.922C274.458 248.134 274.888 307.089 274.888 307.089V345.452C272.05 347.933 269.302 348.961 266.872 349.179C269.788 349.436 273.263 348.62 276.927 345.452V307.089C276.927 307.089 276.615 264.369 279.268 250.916Z" fill="black"/>
<path opacity="0.1" d="M308.844 207.385C308.503 206.525 308.14 205.659 307.726 204.799C307.045 203.302 306.279 201.799 305.43 200.33C304.871 199.302 304.212 198.279 303.542 197.263L297.397 196.978L294.838 196.86L251.447 194.844L251.408 194.933L292.821 196.86L295.38 196.978L301.525 197.263C302.196 198.274 302.827 199.302 303.413 200.33C304.263 201.821 305.028 203.324 305.709 204.799C306.101 205.659 306.469 206.525 306.827 207.385C315.084 228.223 308.816 248.531 308.816 248.531L306.436 265.212C305.47 271.544 304.002 277.789 302.045 283.888C300.335 289.391 301.547 296.179 301.547 296.179C301.547 296.179 303.162 322.022 300.335 328.486C297.508 334.95 297.911 344.235 297.911 344.235C296.351 345.077 294.62 345.554 292.849 345.631C295.294 345.851 297.75 345.367 299.927 344.235C299.927 344.235 299.525 334.944 302.352 328.486C305.179 322.028 303.564 296.179 303.564 296.179C303.564 296.179 302.352 289.385 304.061 283.888C306.019 277.789 307.487 271.544 308.453 265.212L310.832 248.531C310.832 248.531 317.101 228.212 308.844 207.385Z" fill="black"/>
</g>
<path d="M289.547 117.497C295.134 120.129 308.207 110.022 308.207 110.022C313.86 111.637 309.821 135.061 309.821 135.061L309.603 136.034C308.374 141.559 307.631 147.173 306.944 152.793C306.425 157.034 302.553 160.911 302.553 160.911C295.687 173.832 306.592 199.274 306.592 199.274C306.592 199.274 271.458 208.564 261.771 201.291C252.084 194.017 237.542 199.676 237.542 199.676C244.408 193.62 244.804 156.061 244.804 156.061V127.011C245.615 114.894 256.536 101.168 256.536 101.168C261.006 113.687 273.425 114.514 273.425 114.514C276.179 118.983 279.57 117.726 279.57 117.726L289.547 117.497Z" fill="#EB6475"/>
<path opacity="0.1" d="M282.285 68.19C280.899 67.8887 279.464 67.8887 278.078 68.19C273.687 69.4022 272.307 74.9386 268.916 77.9777C267.698 79.095 266.196 79.8436 265.089 81.0559C263.123 83.2123 262.726 86.4078 263.145 89.2961C263.564 92.1844 264.682 94.9218 265.38 97.7542C266.07 100.589 266.331 103.512 266.156 106.425C266.172 107.391 265.912 108.343 265.408 109.168C264.598 110.285 263.106 110.637 262.056 111.531C258.849 114.291 261.497 120.017 259.145 123.542C258.134 125.067 256.24 126.073 255.855 127.86C255.581 129.128 256.162 130.408 256.732 131.575C258.229 134.648 259.782 137.804 262.318 140.095C264.855 142.385 267.989 143.536 271.106 144.704C272.05 145.056 273.235 145.363 273.955 144.665C274.844 143.793 274.173 142.318 273.559 141.24C272.587 139.564 271.827 137.542 272.397 135.654C272.966 133.765 274.793 132.514 276.022 130.939C279.19 126.86 278.151 121.006 276.581 116.089C275.916 114.017 275.168 111.81 275.732 109.704C275.972 108.799 276.447 107.978 276.749 107.089C278.089 103.134 275.838 98.7933 276.497 94.6704C276.84 93.0604 277.404 91.5056 278.173 90.0503L281.721 82.4246C282.078 81.5068 282.611 80.6679 283.291 79.9553C284.393 79.0689 285.79 78.6337 287.201 78.7374C288.639 78.7696 290.056 79.0937 291.365 79.6901C292.674 80.2865 293.848 81.1427 294.816 82.2067C298.615 86.4302 298.374 92.8212 297.916 98.4525L297.587 102.52C297.346 105.447 297.028 108.57 295.184 110.849C293.749 112.615 291.43 113.816 290.838 116.017C290.324 117.911 291.29 119.966 290.782 121.86C290.022 124.693 286.525 125.715 284.676 128.006C283.898 129.001 283.439 130.208 283.357 131.468C283.275 132.729 283.575 133.985 284.218 135.073C284.922 136.19 286.045 137.307 285.894 138.62C285.765 139.676 284.816 140.531 284.821 141.592C284.867 142.067 285.055 142.517 285.361 142.883C285.667 143.249 286.077 143.514 286.536 143.642C287.461 143.882 288.425 143.928 289.369 143.777L299.385 142.871C300.013 142.869 300.628 142.699 301.168 142.38C301.866 141.877 302.095 140.95 302.19 140.095C302.592 136.531 301.631 132.637 303.413 129.52C303.972 128.52 304.793 127.687 305.413 126.726C308.832 121.363 305.385 114.089 307.246 108.006C308.128 105.117 310.184 102.637 310.732 99.6704C311.458 95.7151 309.397 91.8492 308.598 87.9386C307.777 83.8995 308.218 79.4525 306.061 75.9386C304.413 73.257 301.464 71.5866 298.413 70.8212C295.62 70.1173 292.827 70.3687 290.033 70.067C287.363 69.7598 284.883 68.6089 282.285 68.19Z" fill="black"/>
<path d="M282.285 67.3799C280.899 67.0787 279.464 67.0787 278.078 67.3799C273.687 68.5922 272.307 74.1285 268.916 77.1676C267.698 78.2849 266.196 79.0335 265.089 80.2458C263.123 82.4022 262.726 85.5978 263.145 88.486C263.564 91.3743 264.682 94.1117 265.38 96.9441C266.07 99.7794 266.331 102.702 266.156 105.615C266.172 106.581 265.912 107.533 265.408 108.358C264.598 109.475 263.106 109.827 262.056 110.721C258.849 113.48 261.497 119.207 259.145 122.732C258.134 124.257 256.24 125.263 255.855 127.05C255.581 128.318 256.162 129.598 256.732 130.765C258.229 133.838 259.782 136.994 262.318 139.285C264.855 141.575 267.989 142.726 271.106 143.894C272.05 144.246 273.235 144.553 273.955 143.855C274.844 142.983 274.173 141.508 273.559 140.43C272.587 138.754 271.827 136.732 272.397 134.844C272.966 132.955 274.793 131.704 276.022 130.128C279.19 126.05 278.151 120.196 276.581 115.279C275.916 113.207 275.168 111 275.732 108.894C275.972 107.989 276.447 107.168 276.749 106.279C278.089 102.324 275.838 97.9832 276.497 93.8603C276.84 92.2503 277.404 90.6956 278.173 89.2402L281.721 81.6145C282.078 80.6968 282.611 79.8579 283.291 79.1453C284.393 78.2589 285.79 77.8236 287.201 77.9274C288.639 77.9595 290.056 78.2837 291.365 78.88C292.674 79.4764 293.848 80.3326 294.816 81.3967C298.615 85.6201 298.374 92.0112 297.916 97.6425L297.587 101.71C297.346 104.637 297.028 107.76 295.184 110.039C293.749 111.804 291.43 113.006 290.838 115.207C290.324 117.101 291.29 119.156 290.782 121.05C290.022 123.883 286.525 124.905 284.676 127.196C283.898 128.191 283.439 129.398 283.357 130.658C283.275 131.919 283.575 133.175 284.218 134.263C284.922 135.38 286.045 136.497 285.894 137.81C285.765 138.866 284.816 139.721 284.821 140.782C284.867 141.257 285.055 141.707 285.361 142.073C285.667 142.439 286.077 142.704 286.536 142.832C287.461 143.072 288.425 143.118 289.369 142.966L299.385 142.061C300.013 142.059 300.628 141.889 301.168 141.57C301.866 141.067 302.095 140.14 302.19 139.285C302.592 135.721 301.631 131.827 303.413 128.71C303.972 127.71 304.793 126.877 305.413 125.916C308.832 120.553 305.385 113.279 307.246 107.196C308.128 104.307 310.184 101.827 310.732 98.8603C311.458 94.905 309.397 91.0391 308.598 87.1285C307.777 83.0894 308.218 78.6425 306.061 75.1285C304.413 72.4469 301.464 70.7765 298.413 70.0112C295.62 69.3073 292.827 69.5587 290.033 69.257C287.363 68.9553 284.883 67.8045 282.285 67.3799Z" fill="#774E55"/>
<path opacity="0.1" d="M260.754 159.894C260.754 159.894 268.832 162.318 280.542 157.067H286.592C286.592 157.067 286.994 162.721 302.743 160.296" fill="black"/>
<path opacity="0.1" d="M300 412.849C465.685 412.849 600 400.593 600 385.475C600 370.356 465.685 358.101 300 358.101C134.315 358.101 0 370.356 0 385.475C0 400.593 134.315 412.849 300 412.849Z" fill="#33445B"/>
<path opacity="0.1" d="M182.587 144.134H143.67C142.075 144.134 140.782 145.427 140.782 147.022V158.006C140.782 159.601 142.075 160.894 143.67 160.894H182.587C184.182 160.894 185.475 159.601 185.475 158.006V147.022C185.475 145.427 184.182 144.134 182.587 144.134Z" fill="#33445B"/>
<path opacity="0.1" d="M202.698 162.57H163.782C162.187 162.57 160.894 163.863 160.894 165.458V176.441C160.894 178.036 162.187 179.33 163.782 179.33H202.698C204.293 179.33 205.587 178.036 205.587 176.441V165.458C205.587 163.863 204.293 162.57 202.698 162.57Z" fill="#33445B"/>
<path opacity="0.1" d="M378.676 145.251H339.76C338.165 145.251 336.871 146.545 336.871 148.14V159.123C336.871 160.718 338.165 162.011 339.76 162.011H378.676C380.271 162.011 381.564 160.718 381.564 159.123V148.14C381.564 146.545 380.271 145.251 378.676 145.251Z" fill="#33445B"/>
<path opacity="0.1" d="M398.788 163.687H359.872C358.276 163.687 356.983 164.98 356.983 166.575V177.559C356.983 179.154 358.276 180.447 359.872 180.447H398.788C400.383 180.447 401.676 179.154 401.676 177.559V166.575C401.676 164.98 400.383 163.687 398.788 163.687Z" fill="#33445B"/>
<path opacity="0.1" d="M168.62 181.006H129.704C128.109 181.006 126.816 182.299 126.816 183.894V194.877C126.816 196.472 128.109 197.765 129.704 197.765H168.62C170.215 197.765 171.508 196.472 171.508 194.877V183.894C171.508 182.299 170.215 181.006 168.62 181.006Z" fill="#33445B"/>
<path opacity="0.1" d="M213.313 246.369H174.397C172.802 246.369 171.508 247.662 171.508 249.257V260.24C171.508 261.835 172.802 263.128 174.397 263.128H213.313C214.908 263.128 216.201 261.835 216.201 260.24V249.257C216.201 247.662 214.908 246.369 213.313 246.369Z" fill="#33445B"/>
<path opacity="0.1" d="M233.425 264.804H194.508C192.913 264.804 191.62 266.098 191.62 267.693V278.676C191.62 280.271 192.913 281.564 194.508 281.564H233.425C235.02 281.564 236.313 280.271 236.313 278.676V267.693C236.313 266.098 235.02 264.804 233.425 264.804Z" fill="#33445B"/>
<path opacity="0.1" d="M199.346 283.24H160.43C158.835 283.24 157.542 284.533 157.542 286.128V297.112C157.542 298.707 158.835 300 160.43 300H199.346C200.942 300 202.235 298.707 202.235 297.112V286.128C202.235 284.533 200.942 283.24 199.346 283.24Z" fill="#33445B"/>
<path opacity="0.1" d="M393.201 293.296H354.285C352.69 293.296 351.397 294.589 351.397 296.184V307.168C351.397 308.763 352.69 310.056 354.285 310.056H393.201C394.796 310.056 396.089 308.763 396.089 307.168V296.184C396.089 294.589 394.796 293.296 393.201 293.296Z" fill="#33445B"/>
<path opacity="0.1" d="M359.123 311.732H320.207C318.612 311.732 317.318 313.025 317.318 314.62V325.603C317.318 327.198 318.612 328.492 320.207 328.492H359.123C360.718 328.492 362.011 327.198 362.011 325.603V314.62C362.011 313.025 360.718 311.732 359.123 311.732Z" fill="#33445B"/>
<g opacity="0.1">
<path opacity="0.1" d="M528.078 370.609C528.078 370.609 519.989 329.626 536.648 301.536C543.71 289.8 546.774 276.09 545.38 262.464C544.662 256 543.353 249.616 541.469 243.391" stroke="#535461" stroke-width="2" stroke-miterlimit="10"/>
<path opacity="0.1" d="M551.871 225.626C551.424 230.514 541.257 243.883 541.257 243.883C541.257 243.883 533.704 228.888 534.156 223.994C534.417 221.682 535.573 219.563 537.377 218.094C539.182 216.624 541.49 215.92 543.807 216.132C546.125 216.345 548.267 217.458 549.773 219.232C551.28 221.005 552.031 223.299 551.866 225.62L551.871 225.626Z" fill="#33445B"/>
<path opacity="0.1" d="M564.022 254.061C560.989 257.922 545.196 263.626 545.196 263.626C545.196 263.626 547.006 246.933 550.039 243.073C550.74 242.098 551.631 241.276 552.658 240.655C553.685 240.034 554.827 239.628 556.015 239.46C557.204 239.292 558.414 239.366 559.573 239.679C560.732 239.991 561.815 240.534 562.758 241.277C563.702 242.019 564.485 242.944 565.061 243.997C565.637 245.05 565.994 246.208 566.111 247.403C566.227 248.597 566.101 249.803 565.739 250.947C565.377 252.092 564.788 253.151 564.006 254.061H564.022Z" fill="#33445B"/>
<path opacity="0.1" d="M559.128 300.279C554.559 302.078 538.05 299.028 538.05 299.028C538.05 299.028 548.039 285.531 552.609 283.732C554.794 282.91 557.215 282.981 559.348 283.929C561.482 284.876 563.157 286.625 564.013 288.797C564.869 290.969 564.836 293.39 563.922 295.538C563.008 297.687 561.287 299.389 559.128 300.279V300.279Z" fill="#33445B"/>
<path opacity="0.1" d="M547.547 334.441C543.346 336.989 526.559 336.771 526.559 336.771C526.559 336.771 534.123 321.782 538.324 319.235C539.323 318.606 540.437 318.182 541.601 317.989C542.766 317.795 543.957 317.835 545.106 318.106C546.254 318.377 547.338 318.875 548.292 319.569C549.247 320.263 550.054 321.14 550.666 322.149C551.278 323.159 551.683 324.28 551.858 325.447C552.032 326.614 551.972 327.805 551.682 328.949C551.392 330.093 550.877 331.168 550.167 332.111C549.457 333.054 548.567 333.846 547.547 334.441V334.441Z" fill="#33445B"/>
<path opacity="0.1" d="M526.514 262.849C529.71 266.581 545.726 271.609 545.726 271.609C545.726 271.609 543.212 255.006 540.022 251.279C539.269 250.373 538.342 249.626 537.297 249.081C536.252 248.536 535.109 248.204 533.934 248.105C532.76 248.006 531.577 248.141 530.455 248.503C529.334 248.864 528.295 249.446 527.4 250.212C526.504 250.979 525.77 251.916 525.241 252.969C524.711 254.022 524.395 255.17 524.313 256.345C524.231 257.521 524.383 258.702 524.761 259.818C525.138 260.935 525.734 261.965 526.514 262.849V262.849Z" fill="#33445B"/>
<path opacity="0.1" d="M513.475 302.972C517.637 305.575 534.43 305.581 534.43 305.581C534.43 305.581 527.067 290.497 522.899 287.888C521.909 287.25 520.801 286.816 519.641 286.609C518.482 286.403 517.292 286.429 516.142 286.687C514.993 286.944 513.905 287.427 512.944 288.108C511.982 288.789 511.166 289.654 510.542 290.653C509.917 291.652 509.498 292.766 509.307 293.928C509.117 295.091 509.159 296.28 509.432 297.426C509.705 298.572 510.203 299.653 510.897 300.605C511.591 301.557 512.467 302.361 513.475 302.972V302.972Z" fill="#33445B"/>
<path opacity="0.1" d="M506.145 343.693C509.81 346.961 526.358 349.81 526.358 349.81C526.358 349.81 521.648 333.693 517.978 330.425C517.114 329.601 516.094 328.96 514.978 328.539C513.862 328.118 512.672 327.926 511.48 327.974C510.288 328.023 509.118 328.31 508.04 328.82C506.961 329.33 505.996 330.051 505.202 330.941C504.408 331.832 503.801 332.873 503.418 334.002C503.034 335.132 502.882 336.327 502.97 337.517C503.058 338.707 503.385 339.867 503.93 340.928C504.476 341.988 505.229 342.929 506.145 343.693V343.693Z" fill="#33445B"/>
</g>
<g opacity="0.1">
<path opacity="0.1" d="M457.894 361.615C457.894 361.615 453.553 339.609 462.492 324.525C466.283 318.222 467.928 310.859 467.179 303.542C466.797 300.072 466.097 296.644 465.089 293.302" stroke="#535461" stroke-width="2" stroke-miterlimit="10"/>
<path opacity="0.1" d="M470.67 283.76C470.43 286.385 464.972 293.564 464.972 293.564C464.972 293.564 460.916 285.514 461.156 282.888C461.338 281.683 461.973 280.592 462.932 279.84C463.892 279.088 465.102 278.731 466.316 278.842C467.53 278.954 468.656 279.525 469.462 280.439C470.268 281.353 470.695 282.541 470.654 283.76H470.67Z" fill="#33445B"/>
<path opacity="0.1" d="M477.19 299.028C475.559 301.101 467.078 304.162 467.078 304.162C467.078 304.162 468.05 295.223 469.682 293.128C470.478 292.175 471.614 291.57 472.849 291.44C474.085 291.311 475.322 291.668 476.298 292.435C477.275 293.202 477.914 294.32 478.081 295.551C478.247 296.781 477.928 298.029 477.19 299.028V299.028Z" fill="#33445B"/>
<path opacity="0.1" d="M474.564 323.855C472.112 324.821 463.246 323.184 463.246 323.184C463.246 323.184 468.609 315.922 471.067 314.972C472.235 314.553 473.52 314.605 474.651 315.118C475.781 315.63 476.668 316.562 477.123 317.716C477.578 318.87 477.566 320.157 477.09 321.302C476.613 322.448 475.709 323.364 474.57 323.855H474.564Z" fill="#33445B"/>
<path opacity="0.1" d="M468.346 342.179C466.112 343.547 457.078 343.43 457.078 343.43C457.078 343.43 461.14 335.38 463.397 334.011C463.933 333.668 464.533 333.436 465.161 333.328C465.788 333.221 466.431 333.239 467.052 333.384C467.672 333.528 468.257 333.795 468.773 334.169C469.288 334.543 469.724 335.016 470.054 335.56C470.384 336.105 470.602 336.71 470.694 337.34C470.787 337.97 470.753 338.613 470.594 339.229C470.435 339.846 470.154 340.424 469.768 340.931C469.382 341.437 468.899 341.862 468.346 342.179V342.179Z" fill="#33445B"/>
<path opacity="0.1" d="M457.05 303.754C458.765 305.76 467.369 308.458 467.369 308.458C467.369 308.458 466.022 299.52 464.307 297.542C463.483 296.579 462.311 295.982 461.047 295.884C459.784 295.785 458.533 296.193 457.57 297.017C456.607 297.841 456.01 299.013 455.912 300.277C455.813 301.54 456.221 302.791 457.045 303.754H457.05Z" fill="#33445B"/>
<path opacity="0.1" d="M450.05 325.291C452.285 326.687 461.302 326.693 461.302 326.693C461.302 326.693 457.346 318.592 455.112 317.196C454.038 316.549 452.753 316.35 451.534 316.641C450.315 316.933 449.26 317.693 448.596 318.756C447.931 319.819 447.712 321.1 447.984 322.324C448.256 323.547 448.998 324.615 450.05 325.296V325.291Z" fill="#33445B"/>
<path opacity="0.1" d="M446.123 347.156C448.089 348.911 456.978 350.441 456.978 350.441C456.978 350.441 454.452 341.788 452.508 340.033C451.559 339.216 450.327 338.804 449.077 338.887C447.828 338.969 446.66 339.539 445.827 340.474C444.993 341.408 444.56 342.633 444.621 343.884C444.681 345.135 445.231 346.312 446.151 347.162L446.123 347.156Z" fill="#33445B"/>
</g>
<g opacity="0.1">
<path opacity="0.1" d="M104.263 364.966C104.263 364.966 99.9218 342.961 108.86 327.877C112.652 321.574 114.297 314.211 113.547 306.894C113.165 303.424 112.466 299.996 111.458 296.654" stroke="#535461" stroke-width="2" stroke-miterlimit="10"/>
<path opacity="0.1" d="M117.039 287.112C116.799 289.737 111.341 296.916 111.341 296.916C111.341 296.916 107.285 288.866 107.525 286.24C107.706 285.035 108.342 283.944 109.301 283.192C110.26 282.44 111.471 282.083 112.685 282.194C113.899 282.306 115.024 282.877 115.831 283.791C116.637 284.705 117.063 285.893 117.022 287.112H117.039Z" fill="#33445B"/>
<path opacity="0.1" d="M123.559 302.38C121.927 304.452 113.447 307.514 113.447 307.514C113.447 307.514 114.419 298.575 116.05 296.48C116.847 295.527 117.983 294.922 119.218 294.792C120.453 294.663 121.69 295.02 122.667 295.787C123.644 296.554 124.283 297.672 124.449 298.903C124.616 300.133 124.296 301.381 123.559 302.38Z" fill="#33445B"/>
<path opacity="0.1" d="M120.933 327.207C118.48 328.173 109.615 326.536 109.615 326.536C109.615 326.536 114.978 319.274 117.436 318.324C118.604 317.905 119.889 317.957 121.019 318.47C122.15 318.982 123.036 319.914 123.491 321.068C123.947 322.222 123.935 323.509 123.458 324.654C122.982 325.8 122.078 326.715 120.939 327.207H120.933Z" fill="#33445B"/>
<path opacity="0.1" d="M114.715 345.531C112.48 346.899 103.447 346.782 103.447 346.782C103.447 346.782 107.508 338.732 109.765 337.363C110.302 337.02 110.902 336.788 111.529 336.68C112.157 336.573 112.8 336.591 113.42 336.736C114.04 336.88 114.626 337.147 115.141 337.521C115.657 337.895 116.092 338.368 116.423 338.912C116.753 339.457 116.97 340.062 117.063 340.692C117.156 341.322 117.122 341.965 116.963 342.581C116.804 343.198 116.523 343.776 116.137 344.283C115.751 344.79 115.267 345.214 114.715 345.531V345.531Z" fill="#33445B"/>
<path opacity="0.1" d="M103.419 307.106C105.134 309.112 113.737 311.81 113.737 311.81C113.737 311.81 112.391 302.871 110.676 300.894C109.852 299.931 108.68 299.334 107.416 299.236C106.153 299.137 104.902 299.545 103.939 300.369C102.975 301.193 102.379 302.365 102.281 303.629C102.182 304.892 102.59 306.143 103.413 307.106H103.419Z" fill="#33445B"/>
<path opacity="0.1" d="M96.419 328.642C98.6536 330.039 107.67 330.045 107.67 330.045C107.67 330.045 103.715 321.944 101.48 320.548C100.407 319.901 99.122 319.702 97.903 319.993C96.684 320.285 95.6286 321.045 94.9644 322.108C94.3002 323.171 94.0805 324.452 94.3526 325.676C94.6247 326.899 95.3669 327.967 96.419 328.648V328.642Z" fill="#33445B"/>
<path opacity="0.1" d="M92.4916 350.508C94.4581 352.263 103.346 353.793 103.346 353.793C103.346 353.793 100.821 345.14 98.8771 343.385C97.928 342.568 96.6959 342.156 95.4462 342.239C94.1964 342.321 93.029 342.891 92.1954 343.826C91.3617 344.76 90.9286 345.985 90.9892 347.236C91.0499 348.487 91.5994 349.664 92.5195 350.514L92.4916 350.508Z" fill="#33445B"/>
</g>
</g>
<defs>
<linearGradient id="paint0_linear" x1="304.106" y1="396.168" x2="304.106" y2="-1.56374e-05" gradientUnits="userSpaceOnUse">
<stop stop-color="#808080" stop-opacity="0.25"/>
<stop offset="0.54" stop-color="#808080" stop-opacity="0.12"/>
<stop offset="1" stop-color="#808080" stop-opacity="0.1"/>
</linearGradient>
<clipPath id="clip0">
<rect width="600" height="412.849" fill="white"/>
</clipPath>
</defs>
</svg>
